<mxfile host="app.diagrams.net" modified="2024-05-08T20:13:57.484Z" agent="Mozilla/5.0 (Macintosh; Intel Mac OS X 10_15_7) AppleWebKit/605.1.15 (KHTML, like Gecko) Version/17.4.1 Safari/605.1.15" etag="ByXZn96tPF46lxFiHlB9" version="24.3.1" type="github">
  <diagram name="Page-1" id="5NlCm4vUmjtvj6rZ9BSK">
    <mxGraphModel dx="7251" dy="3235" grid="1" gridSize="10" guides="1" tooltips="1" connect="1" arrows="1" fold="1" page="1" pageScale="1" pageWidth="827" pageHeight="1169" math="0" shadow="0">
      <root>
        <mxCell id="0" />
        <mxCell id="1" parent="0" />
        <mxCell id="jD1yjTi1I9CzoJMfPODW-174" style="edgeStyle=orthogonalEdgeStyle;rounded=0;orthogonalLoop=1;jettySize=auto;html=1;exitX=0.5;exitY=0;exitDx=0;exitDy=0;entryX=1;entryY=0.5;entryDx=0;entryDy=0;" edge="1" parent="1" source="jD1yjTi1I9CzoJMfPODW-2" target="jD1yjTi1I9CzoJMfPODW-130">
          <mxGeometry relative="1" as="geometry">
            <mxPoint x="-1400" y="2040" as="targetPoint" />
            <Array as="points">
              <mxPoint x="525" y="45" />
              <mxPoint x="1170" y="45" />
              <mxPoint x="1170" y="2710" />
              <mxPoint x="1263" y="2710" />
              <mxPoint x="1263" y="2630" />
              <mxPoint x="-1400" y="2630" />
            </Array>
          </mxGeometry>
        </mxCell>
        <mxCell id="jD1yjTi1I9CzoJMfPODW-2" value="&lt;p style=&quot;text-align: center; margin: 4px 0px 0px;&quot;&gt;&lt;b&gt;&lt;br&gt;&lt;/b&gt;&lt;/p&gt;&lt;p style=&quot;text-align: center; margin: 4px 0px 0px; font-size: 22px;&quot;&gt;&lt;b&gt;&lt;font style=&quot;font-size: 22px;&quot;&gt;Control unit&lt;/font&gt;&lt;/b&gt;&lt;/p&gt;&lt;div style=&quot;height: 2px; font-size: 22px;&quot;&gt;&lt;/div&gt;" style="verticalAlign=top;align=left;overflow=fill;html=1;whiteSpace=wrap;" vertex="1" parent="1">
          <mxGeometry x="320" y="90" width="410" height="570" as="geometry" />
        </mxCell>
        <mxCell id="jD1yjTi1I9CzoJMfPODW-3" value="&lt;font style=&quot;font-size: 19px;&quot;&gt;BTNC value count&lt;/font&gt;&lt;div style=&quot;font-size: 19px;&quot;&gt;&quot;reg&quot;&lt;/div&gt;" style="whiteSpace=wrap;html=1;aspect=fixed;" vertex="1" parent="1">
          <mxGeometry x="350" y="160" width="140" height="140" as="geometry" />
        </mxCell>
        <mxCell id="jD1yjTi1I9CzoJMfPODW-4" value="&lt;font style=&quot;font-size: 19px;&quot;&gt;increase/decrease value count&lt;/font&gt;&lt;div style=&quot;font-size: 19px;&quot;&gt;&lt;font style=&quot;font-size: 19px;&quot;&gt;&quot;reg&quot;&lt;/font&gt;&lt;/div&gt;" style="whiteSpace=wrap;html=1;aspect=fixed;align=center;" vertex="1" parent="1">
          <mxGeometry x="330" y="340" width="180" height="180" as="geometry" />
        </mxCell>
        <mxCell id="jD1yjTi1I9CzoJMfPODW-5" value="&lt;font style=&quot;font-size: 19px;&quot;&gt;Z flag value count&lt;/font&gt;&lt;div style=&quot;font-size: 19px;&quot;&gt;&lt;font style=&quot;font-size: 19px;&quot;&gt;&quot;reg&quot;&lt;/font&gt;&lt;/div&gt;" style="whiteSpace=wrap;html=1;aspect=fixed;" vertex="1" parent="1">
          <mxGeometry x="550" y="160" width="140" height="140" as="geometry" />
        </mxCell>
        <mxCell id="jD1yjTi1I9CzoJMfPODW-6" value="&lt;font style=&quot;font-size: 19px;&quot;&gt;Alarm/Clock equality&lt;/font&gt;&lt;div style=&quot;font-size: 19px;&quot;&gt;&lt;font style=&quot;font-size: 19px;&quot;&gt;(checks if the alarm and clock values match)&lt;/font&gt;&lt;/div&gt;" style="whiteSpace=wrap;html=1;aspect=fixed;" vertex="1" parent="1">
          <mxGeometry x="540" y="350" width="170" height="170" as="geometry" />
        </mxCell>
        <mxCell id="jD1yjTi1I9CzoJMfPODW-9" value="" style="endArrow=classic;html=1;rounded=0;entryX=0.5;entryY=1;entryDx=0;entryDy=0;exitX=0.464;exitY=-0.055;exitDx=0;exitDy=0;exitPerimeter=0;" edge="1" parent="1" source="jD1yjTi1I9CzoJMfPODW-6" target="jD1yjTi1I9CzoJMfPODW-5">
          <mxGeometry width="50" height="50" relative="1" as="geometry">
            <mxPoint x="240" y="500" as="sourcePoint" />
            <mxPoint x="110" y="400" as="targetPoint" />
          </mxGeometry>
        </mxCell>
        <mxCell id="jD1yjTi1I9CzoJMfPODW-11" value="" style="endArrow=classic;html=1;rounded=0;exitX=1.003;exitY=0.108;exitDx=0;exitDy=0;exitPerimeter=0;" edge="1" parent="1" source="jD1yjTi1I9CzoJMfPODW-2">
          <mxGeometry width="50" height="50" relative="1" as="geometry">
            <mxPoint x="440" y="300" as="sourcePoint" />
            <mxPoint x="790" y="153" as="targetPoint" />
          </mxGeometry>
        </mxCell>
        <mxCell id="jD1yjTi1I9CzoJMfPODW-16" value="LD0" style="ellipse;shape=doubleEllipse;whiteSpace=wrap;html=1;aspect=fixed;" vertex="1" parent="1">
          <mxGeometry x="790" y="120" width="60" height="60" as="geometry" />
        </mxCell>
        <mxCell id="jD1yjTi1I9CzoJMfPODW-17" value="LD15" style="ellipse;shape=doubleEllipse;whiteSpace=wrap;html=1;aspect=fixed;" vertex="1" parent="1">
          <mxGeometry x="790" y="410" width="60" height="60" as="geometry" />
        </mxCell>
        <mxCell id="jD1yjTi1I9CzoJMfPODW-18" value="LD14" style="ellipse;shape=doubleEllipse;whiteSpace=wrap;html=1;aspect=fixed;" vertex="1" parent="1">
          <mxGeometry x="790" y="345" width="60" height="60" as="geometry" />
        </mxCell>
        <mxCell id="jD1yjTi1I9CzoJMfPODW-19" value="LD13" style="ellipse;shape=doubleEllipse;whiteSpace=wrap;html=1;aspect=fixed;" vertex="1" parent="1">
          <mxGeometry x="790" y="280" width="60" height="60" as="geometry" />
        </mxCell>
        <mxCell id="jD1yjTi1I9CzoJMfPODW-20" value="LD12" style="ellipse;shape=doubleEllipse;whiteSpace=wrap;html=1;aspect=fixed;" vertex="1" parent="1">
          <mxGeometry x="790" y="210" width="60" height="60" as="geometry" />
        </mxCell>
        <mxCell id="jD1yjTi1I9CzoJMfPODW-23" value="" style="endArrow=classic;html=1;rounded=0;entryX=0;entryY=0.5;entryDx=0;entryDy=0;" edge="1" parent="1" target="jD1yjTi1I9CzoJMfPODW-20">
          <mxGeometry width="50" height="50" relative="1" as="geometry">
            <mxPoint x="740" y="240" as="sourcePoint" />
            <mxPoint x="490" y="250" as="targetPoint" />
          </mxGeometry>
        </mxCell>
        <mxCell id="jD1yjTi1I9CzoJMfPODW-24" value="LD15" style="ellipse;shape=doubleEllipse;whiteSpace=wrap;html=1;aspect=fixed;" vertex="1" parent="1">
          <mxGeometry x="790" y="480" width="60" height="60" as="geometry" />
        </mxCell>
        <mxCell id="jD1yjTi1I9CzoJMfPODW-25" value="" style="endArrow=classic;html=1;rounded=0;exitX=1;exitY=0.389;exitDx=0;exitDy=0;exitPerimeter=0;entryX=0;entryY=0.5;entryDx=0;entryDy=0;" edge="1" parent="1" source="jD1yjTi1I9CzoJMfPODW-2" target="jD1yjTi1I9CzoJMfPODW-19">
          <mxGeometry width="50" height="50" relative="1" as="geometry">
            <mxPoint x="440" y="300" as="sourcePoint" />
            <mxPoint x="490" y="250" as="targetPoint" />
          </mxGeometry>
        </mxCell>
        <mxCell id="jD1yjTi1I9CzoJMfPODW-26" value="" style="endArrow=classic;html=1;rounded=0;exitX=1;exitY=0.5;exitDx=0;exitDy=0;entryX=0;entryY=0.5;entryDx=0;entryDy=0;" edge="1" parent="1" source="jD1yjTi1I9CzoJMfPODW-2" target="jD1yjTi1I9CzoJMfPODW-18">
          <mxGeometry width="50" height="50" relative="1" as="geometry">
            <mxPoint x="440" y="300" as="sourcePoint" />
            <mxPoint x="490" y="250" as="targetPoint" />
          </mxGeometry>
        </mxCell>
        <mxCell id="jD1yjTi1I9CzoJMfPODW-28" value="" style="endArrow=classic;html=1;rounded=0;exitX=1;exitY=0.75;exitDx=0;exitDy=0;" edge="1" parent="1" source="jD1yjTi1I9CzoJMfPODW-2" target="jD1yjTi1I9CzoJMfPODW-24">
          <mxGeometry width="50" height="50" relative="1" as="geometry">
            <mxPoint x="440" y="300" as="sourcePoint" />
            <mxPoint x="490" y="250" as="targetPoint" />
          </mxGeometry>
        </mxCell>
        <mxCell id="jD1yjTi1I9CzoJMfPODW-29" value="" style="endArrow=classic;html=1;rounded=0;exitX=1.007;exitY=0.622;exitDx=0;exitDy=0;exitPerimeter=0;entryX=0;entryY=0.5;entryDx=0;entryDy=0;" edge="1" parent="1" source="jD1yjTi1I9CzoJMfPODW-2" target="jD1yjTi1I9CzoJMfPODW-17">
          <mxGeometry width="50" height="50" relative="1" as="geometry">
            <mxPoint x="440" y="300" as="sourcePoint" />
            <mxPoint x="490" y="250" as="targetPoint" />
          </mxGeometry>
        </mxCell>
        <mxCell id="jD1yjTi1I9CzoJMfPODW-30" value="Buzzer" style="ellipse;shape=doubleEllipse;whiteSpace=wrap;html=1;aspect=fixed;" vertex="1" parent="1">
          <mxGeometry x="790" y="570" width="80" height="80" as="geometry" />
        </mxCell>
        <mxCell id="jD1yjTi1I9CzoJMfPODW-31" value="" style="endArrow=classic;html=1;rounded=0;exitX=1.003;exitY=0.905;exitDx=0;exitDy=0;exitPerimeter=0;entryX=0;entryY=0.5;entryDx=0;entryDy=0;" edge="1" parent="1" source="jD1yjTi1I9CzoJMfPODW-2" target="jD1yjTi1I9CzoJMfPODW-30">
          <mxGeometry width="50" height="50" relative="1" as="geometry">
            <mxPoint x="440" y="300" as="sourcePoint" />
            <mxPoint x="490" y="250" as="targetPoint" />
          </mxGeometry>
        </mxCell>
        <mxCell id="jD1yjTi1I9CzoJMfPODW-32" value="&lt;font style=&quot;font-size: 19px;&quot;&gt;Decoder&lt;/font&gt;" style="shape=trapezoid;perimeter=trapezoidPerimeter;whiteSpace=wrap;html=1;fixedSize=1;rotation=90;" vertex="1" parent="1">
          <mxGeometry x="-72.5" y="242.5" width="422.5" height="162.5" as="geometry" />
        </mxCell>
        <mxCell id="jD1yjTi1I9CzoJMfPODW-33" value="" style="endArrow=classic;html=1;rounded=0;exitX=-0.006;exitY=0.407;exitDx=0;exitDy=0;exitPerimeter=0;" edge="1" parent="1" source="jD1yjTi1I9CzoJMfPODW-2" target="jD1yjTi1I9CzoJMfPODW-32">
          <mxGeometry width="50" height="50" relative="1" as="geometry">
            <mxPoint x="730" y="450" as="sourcePoint" />
            <mxPoint x="780" y="400" as="targetPoint" />
          </mxGeometry>
        </mxCell>
        <mxCell id="jD1yjTi1I9CzoJMfPODW-35" value="&lt;font style=&quot;font-size: 19px;&quot;&gt;Mins counter&amp;nbsp;&lt;/font&gt;&lt;div&gt;&lt;font style=&quot;font-size: 19px;&quot;&gt;Mod 10&lt;/font&gt;&lt;div&gt;&lt;font style=&quot;font-size: 19px;&quot;&gt;&lt;br&gt;&lt;/font&gt;&lt;/div&gt;&lt;div&gt;&lt;font style=&quot;font-size: 19px;&quot;&gt;&lt;br&gt;&lt;/font&gt;&lt;/div&gt;&lt;div&gt;&lt;font style=&quot;font-size: 19px;&quot;&gt;&lt;br&gt;&lt;/font&gt;&lt;/div&gt;&lt;div&gt;&lt;font style=&quot;font-size: 19px;&quot;&gt;&lt;br&gt;&lt;/font&gt;&lt;/div&gt;&lt;div&gt;&lt;font style=&quot;font-size: 19px;&quot;&gt;&lt;br&gt;&lt;/font&gt;&lt;/div&gt;&lt;div&gt;&lt;font style=&quot;font-size: 19px;&quot;&gt;&lt;br&gt;&lt;/font&gt;&lt;/div&gt;&lt;div&gt;&lt;font style=&quot;font-size: 19px;&quot;&gt;&lt;br&gt;&lt;/font&gt;&lt;/div&gt;&lt;/div&gt;" style="whiteSpace=wrap;html=1;aspect=fixed;" vertex="1" parent="1">
          <mxGeometry x="-330" y="740" width="300" height="300" as="geometry" />
        </mxCell>
        <mxCell id="jD1yjTi1I9CzoJMfPODW-149" style="edgeStyle=orthogonalEdgeStyle;rounded=0;orthogonalLoop=1;jettySize=auto;html=1;exitX=0.75;exitY=1;exitDx=0;exitDy=0;entryX=1;entryY=0.5;entryDx=0;entryDy=0;" edge="1" parent="1" source="jD1yjTi1I9CzoJMfPODW-36" target="jD1yjTi1I9CzoJMfPODW-151">
          <mxGeometry relative="1" as="geometry">
            <mxPoint x="-460" y="1210" as="targetPoint" />
          </mxGeometry>
        </mxCell>
        <mxCell id="jD1yjTi1I9CzoJMfPODW-36" value="&lt;font style=&quot;font-size: 19px;&quot;&gt;Mins counter&lt;/font&gt;&lt;div&gt;&lt;font style=&quot;font-size: 19px;&quot;&gt;Mod 6&lt;/font&gt;&lt;div&gt;&lt;font style=&quot;font-size: 19px;&quot;&gt;&lt;br&gt;&lt;/font&gt;&lt;/div&gt;&lt;div&gt;&lt;font style=&quot;font-size: 19px;&quot;&gt;&lt;br&gt;&lt;/font&gt;&lt;/div&gt;&lt;div&gt;&lt;font style=&quot;font-size: 19px;&quot;&gt;&lt;br&gt;&lt;/font&gt;&lt;/div&gt;&lt;div&gt;&lt;font style=&quot;font-size: 19px;&quot;&gt;&lt;br&gt;&lt;/font&gt;&lt;/div&gt;&lt;div&gt;&lt;font style=&quot;font-size: 19px;&quot;&gt;&lt;br&gt;&lt;/font&gt;&lt;/div&gt;&lt;div&gt;&lt;font style=&quot;font-size: 19px;&quot;&gt;&lt;br&gt;&lt;/font&gt;&lt;/div&gt;&lt;div&gt;&lt;font style=&quot;font-size: 19px;&quot;&gt;&lt;br&gt;&lt;/font&gt;&lt;/div&gt;&lt;/div&gt;" style="whiteSpace=wrap;html=1;aspect=fixed;" vertex="1" parent="1">
          <mxGeometry x="-850" y="730" width="300" height="300" as="geometry" />
        </mxCell>
        <mxCell id="jD1yjTi1I9CzoJMfPODW-162" style="edgeStyle=orthogonalEdgeStyle;rounded=0;orthogonalLoop=1;jettySize=auto;html=1;exitX=0.75;exitY=0;exitDx=0;exitDy=0;entryX=0;entryY=0.5;entryDx=0;entryDy=0;" edge="1" parent="1" source="jD1yjTi1I9CzoJMfPODW-37" target="jD1yjTi1I9CzoJMfPODW-164">
          <mxGeometry relative="1" as="geometry">
            <mxPoint x="-950" y="1460" as="targetPoint" />
          </mxGeometry>
        </mxCell>
        <mxCell id="jD1yjTi1I9CzoJMfPODW-37" value="&lt;font style=&quot;font-size: 19px;&quot;&gt;Hours counter&lt;/font&gt;&lt;div&gt;&lt;font style=&quot;font-size: 19px;&quot;&gt;Mod 10&lt;/font&gt;&lt;div&gt;&lt;font style=&quot;font-size: 19px;&quot;&gt;&lt;br&gt;&lt;/font&gt;&lt;/div&gt;&lt;div&gt;&lt;font style=&quot;font-size: 19px;&quot;&gt;&lt;br&gt;&lt;/font&gt;&lt;/div&gt;&lt;div&gt;&lt;font style=&quot;font-size: 19px;&quot;&gt;&lt;br&gt;&lt;/font&gt;&lt;/div&gt;&lt;div&gt;&lt;font style=&quot;font-size: 19px;&quot;&gt;&lt;br&gt;&lt;/font&gt;&lt;/div&gt;&lt;div&gt;&lt;font style=&quot;font-size: 19px;&quot;&gt;&lt;br&gt;&lt;/font&gt;&lt;/div&gt;&lt;div&gt;&lt;font style=&quot;font-size: 19px;&quot;&gt;&lt;br&gt;&lt;/font&gt;&lt;/div&gt;&lt;div&gt;&lt;font style=&quot;font-size: 19px;&quot;&gt;&lt;br&gt;&lt;/font&gt;&lt;/div&gt;&lt;/div&gt;" style="whiteSpace=wrap;html=1;aspect=fixed;" vertex="1" parent="1">
          <mxGeometry x="-1310" y="1690" width="300" height="300" as="geometry" />
        </mxCell>
        <mxCell id="jD1yjTi1I9CzoJMfPODW-150" style="edgeStyle=orthogonalEdgeStyle;rounded=0;orthogonalLoop=1;jettySize=auto;html=1;exitX=0.75;exitY=0;exitDx=0;exitDy=0;entryX=0;entryY=0.5;entryDx=0;entryDy=0;" edge="1" parent="1" source="jD1yjTi1I9CzoJMfPODW-38" target="jD1yjTi1I9CzoJMfPODW-151">
          <mxGeometry relative="1" as="geometry">
            <mxPoint x="-410" y="1440" as="targetPoint" />
          </mxGeometry>
        </mxCell>
        <mxCell id="jD1yjTi1I9CzoJMfPODW-38" value="&lt;font style=&quot;font-size: 19px;&quot;&gt;Mins counter&amp;nbsp;&lt;/font&gt;&lt;div&gt;&lt;font style=&quot;font-size: 19px;&quot;&gt;Mod 6&lt;/font&gt;&lt;div&gt;&lt;font style=&quot;font-size: 19px;&quot;&gt;&lt;br&gt;&lt;/font&gt;&lt;/div&gt;&lt;div&gt;&lt;font style=&quot;font-size: 19px;&quot;&gt;&lt;br&gt;&lt;/font&gt;&lt;/div&gt;&lt;div&gt;&lt;font style=&quot;font-size: 19px;&quot;&gt;&lt;br&gt;&lt;/font&gt;&lt;/div&gt;&lt;div&gt;&lt;font style=&quot;font-size: 19px;&quot;&gt;&lt;br&gt;&lt;/font&gt;&lt;/div&gt;&lt;div&gt;&lt;font style=&quot;font-size: 19px;&quot;&gt;&lt;br&gt;&lt;/font&gt;&lt;/div&gt;&lt;div&gt;&lt;font style=&quot;font-size: 19px;&quot;&gt;&lt;br&gt;&lt;/font&gt;&lt;/div&gt;&lt;div&gt;&lt;font style=&quot;font-size: 19px;&quot;&gt;&lt;br&gt;&lt;/font&gt;&lt;/div&gt;&lt;/div&gt;" style="whiteSpace=wrap;html=1;aspect=fixed;" vertex="1" parent="1">
          <mxGeometry x="-850" y="1690" width="300" height="300" as="geometry" />
        </mxCell>
        <mxCell id="jD1yjTi1I9CzoJMfPODW-39" value="&lt;font style=&quot;font-size: 19px;&quot;&gt;Alamr mins counter&amp;nbsp;&lt;/font&gt;&lt;div&gt;&lt;font style=&quot;font-size: 19px;&quot;&gt;Mod 10&lt;/font&gt;&lt;div&gt;&lt;font style=&quot;font-size: 19px;&quot;&gt;&lt;br&gt;&lt;/font&gt;&lt;/div&gt;&lt;div&gt;&lt;font style=&quot;font-size: 19px;&quot;&gt;&lt;br&gt;&lt;/font&gt;&lt;/div&gt;&lt;div&gt;&lt;font style=&quot;font-size: 19px;&quot;&gt;&lt;br&gt;&lt;/font&gt;&lt;/div&gt;&lt;div&gt;&lt;font style=&quot;font-size: 19px;&quot;&gt;&lt;br&gt;&lt;/font&gt;&lt;/div&gt;&lt;div&gt;&lt;font style=&quot;font-size: 19px;&quot;&gt;&lt;br&gt;&lt;/font&gt;&lt;/div&gt;&lt;div&gt;&lt;font style=&quot;font-size: 19px;&quot;&gt;&lt;br&gt;&lt;/font&gt;&lt;/div&gt;&lt;div&gt;&lt;font style=&quot;font-size: 19px;&quot;&gt;&lt;br&gt;&lt;/font&gt;&lt;/div&gt;&lt;/div&gt;" style="whiteSpace=wrap;html=1;aspect=fixed;" vertex="1" parent="1">
          <mxGeometry x="-230" y="1690" width="300" height="300" as="geometry" />
        </mxCell>
        <mxCell id="jD1yjTi1I9CzoJMfPODW-170" style="edgeStyle=orthogonalEdgeStyle;rounded=0;orthogonalLoop=1;jettySize=auto;html=1;exitX=0.75;exitY=0;exitDx=0;exitDy=0;" edge="1" parent="1" source="jD1yjTi1I9CzoJMfPODW-40" target="jD1yjTi1I9CzoJMfPODW-171">
          <mxGeometry relative="1" as="geometry">
            <mxPoint x="-1340" y="1430" as="targetPoint" />
          </mxGeometry>
        </mxCell>
        <mxCell id="jD1yjTi1I9CzoJMfPODW-40" value="&lt;font style=&quot;font-size: 19px;&quot;&gt;Hours counter&lt;/font&gt;&lt;div&gt;&lt;font style=&quot;font-size: 19px;&quot;&gt;Mod 3&lt;/font&gt;&lt;div&gt;&lt;font style=&quot;font-size: 19px;&quot;&gt;&lt;br&gt;&lt;/font&gt;&lt;/div&gt;&lt;div&gt;&lt;font style=&quot;font-size: 19px;&quot;&gt;&lt;br&gt;&lt;/font&gt;&lt;/div&gt;&lt;div&gt;&lt;font style=&quot;font-size: 19px;&quot;&gt;&lt;br&gt;&lt;/font&gt;&lt;/div&gt;&lt;div&gt;&lt;font style=&quot;font-size: 19px;&quot;&gt;&lt;br&gt;&lt;/font&gt;&lt;/div&gt;&lt;div&gt;&lt;font style=&quot;font-size: 19px;&quot;&gt;&lt;br&gt;&lt;/font&gt;&lt;/div&gt;&lt;div&gt;&lt;font style=&quot;font-size: 19px;&quot;&gt;&lt;br&gt;&lt;/font&gt;&lt;/div&gt;&lt;div&gt;&lt;font style=&quot;font-size: 19px;&quot;&gt;&lt;br&gt;&lt;/font&gt;&lt;/div&gt;&lt;/div&gt;" style="whiteSpace=wrap;html=1;aspect=fixed;" vertex="1" parent="1">
          <mxGeometry x="-1790" y="1670" width="300" height="300" as="geometry" />
        </mxCell>
        <mxCell id="jD1yjTi1I9CzoJMfPODW-163" style="edgeStyle=orthogonalEdgeStyle;rounded=0;orthogonalLoop=1;jettySize=auto;html=1;exitX=0.75;exitY=1;exitDx=0;exitDy=0;" edge="1" parent="1" source="jD1yjTi1I9CzoJMfPODW-41" target="jD1yjTi1I9CzoJMfPODW-164">
          <mxGeometry relative="1" as="geometry">
            <mxPoint x="-930" y="1220" as="targetPoint" />
          </mxGeometry>
        </mxCell>
        <mxCell id="jD1yjTi1I9CzoJMfPODW-41" value="&lt;font style=&quot;font-size: 19px;&quot;&gt;Hours counter&amp;nbsp;&lt;/font&gt;&lt;div&gt;&lt;span style=&quot;font-size: 19px;&quot;&gt;Mod 10&lt;/span&gt;&lt;div&gt;&lt;div&gt;&lt;font style=&quot;font-size: 19px;&quot;&gt;&lt;br&gt;&lt;/font&gt;&lt;/div&gt;&lt;div&gt;&lt;font style=&quot;font-size: 19px;&quot;&gt;&lt;br&gt;&lt;/font&gt;&lt;/div&gt;&lt;div&gt;&lt;font style=&quot;font-size: 19px;&quot;&gt;&lt;br&gt;&lt;/font&gt;&lt;/div&gt;&lt;div&gt;&lt;font style=&quot;font-size: 19px;&quot;&gt;&lt;br&gt;&lt;/font&gt;&lt;/div&gt;&lt;div&gt;&lt;font style=&quot;font-size: 19px;&quot;&gt;&lt;br&gt;&lt;/font&gt;&lt;/div&gt;&lt;div&gt;&lt;font style=&quot;font-size: 19px;&quot;&gt;&lt;br&gt;&lt;/font&gt;&lt;/div&gt;&lt;div&gt;&lt;font style=&quot;font-size: 19px;&quot;&gt;&lt;br&gt;&lt;/font&gt;&lt;/div&gt;&lt;/div&gt;&lt;/div&gt;" style="whiteSpace=wrap;html=1;aspect=fixed;" vertex="1" parent="1">
          <mxGeometry x="-1280" y="730" width="300" height="300" as="geometry" />
        </mxCell>
        <mxCell id="jD1yjTi1I9CzoJMfPODW-42" value="&lt;font style=&quot;font-size: 19px;&quot;&gt;Seconds counter&amp;nbsp;&lt;/font&gt;&lt;div&gt;&lt;font style=&quot;font-size: 19px;&quot;&gt;Mod 60&lt;/font&gt;&lt;div&gt;&lt;font style=&quot;font-size: 19px;&quot;&gt;&lt;br&gt;&lt;/font&gt;&lt;/div&gt;&lt;div&gt;&lt;font style=&quot;font-size: 19px;&quot;&gt;&lt;br&gt;&lt;/font&gt;&lt;/div&gt;&lt;div&gt;&lt;font style=&quot;font-size: 19px;&quot;&gt;&lt;br&gt;&lt;/font&gt;&lt;/div&gt;&lt;div&gt;&lt;font style=&quot;font-size: 19px;&quot;&gt;&lt;br&gt;&lt;/font&gt;&lt;/div&gt;&lt;div&gt;&lt;font style=&quot;font-size: 19px;&quot;&gt;&lt;br&gt;&lt;/font&gt;&lt;/div&gt;&lt;div&gt;&lt;font style=&quot;font-size: 19px;&quot;&gt;&lt;br&gt;&lt;/font&gt;&lt;/div&gt;&lt;div&gt;&lt;font style=&quot;font-size: 19px;&quot;&gt;&lt;br&gt;&lt;/font&gt;&lt;/div&gt;&lt;/div&gt;" style="whiteSpace=wrap;html=1;aspect=fixed;" vertex="1" parent="1">
          <mxGeometry x="390" y="780" width="300" height="300" as="geometry" />
        </mxCell>
        <mxCell id="jD1yjTi1I9CzoJMfPODW-45" value="" style="endArrow=classic;html=1;rounded=0;entryX=1;entryY=0.25;entryDx=0;entryDy=0;" edge="1" parent="1" target="jD1yjTi1I9CzoJMfPODW-42">
          <mxGeometry width="50" height="50" relative="1" as="geometry">
            <mxPoint x="800" y="855" as="sourcePoint" />
            <mxPoint x="-210" y="520" as="targetPoint" />
          </mxGeometry>
        </mxCell>
        <mxCell id="jD1yjTi1I9CzoJMfPODW-46" value="" style="endArrow=classic;startArrow=classic;html=1;rounded=0;exitX=0.5;exitY=0;exitDx=0;exitDy=0;entryX=0.551;entryY=1.012;entryDx=0;entryDy=0;entryPerimeter=0;" edge="1" parent="1" source="jD1yjTi1I9CzoJMfPODW-42" target="jD1yjTi1I9CzoJMfPODW-2">
          <mxGeometry width="50" height="50" relative="1" as="geometry">
            <mxPoint x="-260" y="570" as="sourcePoint" />
            <mxPoint x="-210" y="520" as="targetPoint" />
          </mxGeometry>
        </mxCell>
        <mxCell id="jD1yjTi1I9CzoJMfPODW-48" value="&lt;span style=&quot;font-size: 19px;&quot;&gt;clk_1hz&lt;/span&gt;" style="rounded=0;whiteSpace=wrap;html=1;" vertex="1" parent="1">
          <mxGeometry x="790" y="830" width="120" height="60" as="geometry" />
        </mxCell>
        <mxCell id="jD1yjTi1I9CzoJMfPODW-169" style="edgeStyle=orthogonalEdgeStyle;rounded=0;orthogonalLoop=1;jettySize=auto;html=1;exitX=0.75;exitY=1;exitDx=0;exitDy=0;entryX=1;entryY=0.5;entryDx=0;entryDy=0;" edge="1" parent="1" source="jD1yjTi1I9CzoJMfPODW-49" target="jD1yjTi1I9CzoJMfPODW-171">
          <mxGeometry relative="1" as="geometry">
            <mxPoint x="-1340" y="1220" as="targetPoint" />
          </mxGeometry>
        </mxCell>
        <mxCell id="jD1yjTi1I9CzoJMfPODW-49" value="&lt;font style=&quot;font-size: 19px;&quot;&gt;Hours counter&lt;/font&gt;&lt;div&gt;&lt;font style=&quot;font-size: 19px;&quot;&gt;Mod 3&lt;/font&gt;&lt;div&gt;&lt;font style=&quot;font-size: 19px;&quot;&gt;&lt;br&gt;&lt;/font&gt;&lt;/div&gt;&lt;div&gt;&lt;font style=&quot;font-size: 19px;&quot;&gt;&lt;br&gt;&lt;/font&gt;&lt;/div&gt;&lt;div&gt;&lt;font style=&quot;font-size: 19px;&quot;&gt;&lt;br&gt;&lt;/font&gt;&lt;/div&gt;&lt;div&gt;&lt;font style=&quot;font-size: 19px;&quot;&gt;&lt;br&gt;&lt;/font&gt;&lt;/div&gt;&lt;div&gt;&lt;font style=&quot;font-size: 19px;&quot;&gt;&lt;br&gt;&lt;/font&gt;&lt;/div&gt;&lt;div&gt;&lt;font style=&quot;font-size: 19px;&quot;&gt;&lt;br&gt;&lt;/font&gt;&lt;/div&gt;&lt;div&gt;&lt;font style=&quot;font-size: 19px;&quot;&gt;&lt;br&gt;&lt;/font&gt;&lt;/div&gt;&lt;/div&gt;" style="whiteSpace=wrap;html=1;aspect=fixed;" vertex="1" parent="1">
          <mxGeometry x="-1730" y="750" width="300" height="300" as="geometry" />
        </mxCell>
        <mxCell id="jD1yjTi1I9CzoJMfPODW-52" value="" style="endArrow=none;html=1;rounded=0;" edge="1" parent="1">
          <mxGeometry width="50" height="50" relative="1" as="geometry">
            <mxPoint x="250" y="1279" as="sourcePoint" />
            <mxPoint x="250" y="1209" as="targetPoint" />
          </mxGeometry>
        </mxCell>
        <mxCell id="jD1yjTi1I9CzoJMfPODW-54" value="" style="endArrow=none;html=1;rounded=0;" edge="1" parent="1">
          <mxGeometry width="50" height="50" relative="1" as="geometry">
            <mxPoint x="190" y="1199" as="sourcePoint" />
            <mxPoint x="240" y="1199" as="targetPoint" />
          </mxGeometry>
        </mxCell>
        <mxCell id="jD1yjTi1I9CzoJMfPODW-55" value="" style="endArrow=none;html=1;rounded=0;" edge="1" parent="1">
          <mxGeometry width="50" height="50" relative="1" as="geometry">
            <mxPoint x="180" y="1279" as="sourcePoint" />
            <mxPoint x="180" y="1209" as="targetPoint" />
            <Array as="points">
              <mxPoint x="180" y="1259" />
            </Array>
          </mxGeometry>
        </mxCell>
        <mxCell id="jD1yjTi1I9CzoJMfPODW-56" value="" style="endArrow=none;html=1;rounded=0;" edge="1" parent="1">
          <mxGeometry width="50" height="50" relative="1" as="geometry">
            <mxPoint x="250" y="1369" as="sourcePoint" />
            <mxPoint x="250" y="1299" as="targetPoint" />
          </mxGeometry>
        </mxCell>
        <mxCell id="jD1yjTi1I9CzoJMfPODW-57" value="" style="endArrow=none;html=1;rounded=0;" edge="1" parent="1">
          <mxGeometry width="50" height="50" relative="1" as="geometry">
            <mxPoint x="180" y="1379" as="sourcePoint" />
            <mxPoint x="180" y="1299" as="targetPoint" />
          </mxGeometry>
        </mxCell>
        <mxCell id="jD1yjTi1I9CzoJMfPODW-58" value="" style="endArrow=none;html=1;rounded=0;" edge="1" parent="1">
          <mxGeometry width="50" height="50" relative="1" as="geometry">
            <mxPoint x="190" y="1289" as="sourcePoint" />
            <mxPoint x="240" y="1289" as="targetPoint" />
          </mxGeometry>
        </mxCell>
        <mxCell id="jD1yjTi1I9CzoJMfPODW-59" value="" style="endArrow=none;html=1;rounded=0;" edge="1" parent="1">
          <mxGeometry width="50" height="50" relative="1" as="geometry">
            <mxPoint x="190" y="1389" as="sourcePoint" />
            <mxPoint x="240" y="1389" as="targetPoint" />
          </mxGeometry>
        </mxCell>
        <mxCell id="jD1yjTi1I9CzoJMfPODW-60" value="" style="swimlane;startSize=0;direction=south;rotation=-180;" vertex="1" parent="1">
          <mxGeometry x="150" y="1169" width="130" height="240" as="geometry" />
        </mxCell>
        <mxCell id="jD1yjTi1I9CzoJMfPODW-86" value="" style="endArrow=classic;html=1;rounded=0;exitX=0.605;exitY=1.007;exitDx=0;exitDy=0;exitPerimeter=0;" edge="1" parent="1" source="jD1yjTi1I9CzoJMfPODW-42">
          <mxGeometry width="50" height="50" relative="1" as="geometry">
            <mxPoint x="580" y="1480" as="sourcePoint" />
            <mxPoint x="290" y="1400" as="targetPoint" />
            <Array as="points">
              <mxPoint x="580" y="1390" />
              <mxPoint x="420" y="1400" />
            </Array>
          </mxGeometry>
        </mxCell>
        <mxCell id="jD1yjTi1I9CzoJMfPODW-95" value="" style="endArrow=none;html=1;rounded=0;" edge="1" parent="1">
          <mxGeometry width="50" height="50" relative="1" as="geometry">
            <mxPoint x="-1060" y="1300" as="sourcePoint" />
            <mxPoint x="-1060" y="1230" as="targetPoint" />
          </mxGeometry>
        </mxCell>
        <mxCell id="jD1yjTi1I9CzoJMfPODW-96" value="" style="endArrow=none;html=1;rounded=0;" edge="1" parent="1">
          <mxGeometry width="50" height="50" relative="1" as="geometry">
            <mxPoint x="-1120" y="1220" as="sourcePoint" />
            <mxPoint x="-1070" y="1220" as="targetPoint" />
          </mxGeometry>
        </mxCell>
        <mxCell id="jD1yjTi1I9CzoJMfPODW-97" value="" style="endArrow=none;html=1;rounded=0;" edge="1" parent="1">
          <mxGeometry width="50" height="50" relative="1" as="geometry">
            <mxPoint x="-1130" y="1300" as="sourcePoint" />
            <mxPoint x="-1130" y="1230" as="targetPoint" />
            <Array as="points">
              <mxPoint x="-1130" y="1280" />
            </Array>
          </mxGeometry>
        </mxCell>
        <mxCell id="jD1yjTi1I9CzoJMfPODW-98" value="" style="endArrow=none;html=1;rounded=0;" edge="1" parent="1">
          <mxGeometry width="50" height="50" relative="1" as="geometry">
            <mxPoint x="-1060" y="1390" as="sourcePoint" />
            <mxPoint x="-1060" y="1320" as="targetPoint" />
          </mxGeometry>
        </mxCell>
        <mxCell id="jD1yjTi1I9CzoJMfPODW-99" value="" style="endArrow=none;html=1;rounded=0;" edge="1" parent="1">
          <mxGeometry width="50" height="50" relative="1" as="geometry">
            <mxPoint x="-1130" y="1400" as="sourcePoint" />
            <mxPoint x="-1130" y="1320" as="targetPoint" />
          </mxGeometry>
        </mxCell>
        <mxCell id="jD1yjTi1I9CzoJMfPODW-100" value="" style="endArrow=none;html=1;rounded=0;" edge="1" parent="1">
          <mxGeometry width="50" height="50" relative="1" as="geometry">
            <mxPoint x="-1120" y="1310" as="sourcePoint" />
            <mxPoint x="-1070" y="1310" as="targetPoint" />
          </mxGeometry>
        </mxCell>
        <mxCell id="jD1yjTi1I9CzoJMfPODW-101" value="" style="endArrow=none;html=1;rounded=0;" edge="1" parent="1">
          <mxGeometry width="50" height="50" relative="1" as="geometry">
            <mxPoint x="-1120" y="1410" as="sourcePoint" />
            <mxPoint x="-1070" y="1410" as="targetPoint" />
          </mxGeometry>
        </mxCell>
        <mxCell id="jD1yjTi1I9CzoJMfPODW-102" value="" style="swimlane;startSize=0;direction=south;rotation=-180;" vertex="1" parent="1">
          <mxGeometry x="-1160" y="1190" width="130" height="240" as="geometry" />
        </mxCell>
        <mxCell id="jD1yjTi1I9CzoJMfPODW-103" value="" style="endArrow=none;html=1;rounded=0;" edge="1" parent="1">
          <mxGeometry width="50" height="50" relative="1" as="geometry">
            <mxPoint x="-630" y="1300" as="sourcePoint" />
            <mxPoint x="-630" y="1230" as="targetPoint" />
          </mxGeometry>
        </mxCell>
        <mxCell id="jD1yjTi1I9CzoJMfPODW-104" value="" style="endArrow=none;html=1;rounded=0;" edge="1" parent="1">
          <mxGeometry width="50" height="50" relative="1" as="geometry">
            <mxPoint x="-690" y="1220" as="sourcePoint" />
            <mxPoint x="-640" y="1220" as="targetPoint" />
          </mxGeometry>
        </mxCell>
        <mxCell id="jD1yjTi1I9CzoJMfPODW-105" value="" style="endArrow=none;html=1;rounded=0;" edge="1" parent="1">
          <mxGeometry width="50" height="50" relative="1" as="geometry">
            <mxPoint x="-700" y="1300" as="sourcePoint" />
            <mxPoint x="-700" y="1230" as="targetPoint" />
            <Array as="points">
              <mxPoint x="-700" y="1280" />
            </Array>
          </mxGeometry>
        </mxCell>
        <mxCell id="jD1yjTi1I9CzoJMfPODW-106" value="" style="endArrow=none;html=1;rounded=0;" edge="1" parent="1">
          <mxGeometry width="50" height="50" relative="1" as="geometry">
            <mxPoint x="-630" y="1390" as="sourcePoint" />
            <mxPoint x="-630" y="1320" as="targetPoint" />
          </mxGeometry>
        </mxCell>
        <mxCell id="jD1yjTi1I9CzoJMfPODW-107" value="" style="endArrow=none;html=1;rounded=0;" edge="1" parent="1">
          <mxGeometry width="50" height="50" relative="1" as="geometry">
            <mxPoint x="-700" y="1400" as="sourcePoint" />
            <mxPoint x="-700" y="1320" as="targetPoint" />
          </mxGeometry>
        </mxCell>
        <mxCell id="jD1yjTi1I9CzoJMfPODW-108" value="" style="endArrow=none;html=1;rounded=0;" edge="1" parent="1">
          <mxGeometry width="50" height="50" relative="1" as="geometry">
            <mxPoint x="-690" y="1310" as="sourcePoint" />
            <mxPoint x="-640" y="1310" as="targetPoint" />
          </mxGeometry>
        </mxCell>
        <mxCell id="jD1yjTi1I9CzoJMfPODW-109" value="" style="endArrow=none;html=1;rounded=0;" edge="1" parent="1">
          <mxGeometry width="50" height="50" relative="1" as="geometry">
            <mxPoint x="-690" y="1410" as="sourcePoint" />
            <mxPoint x="-640" y="1410" as="targetPoint" />
          </mxGeometry>
        </mxCell>
        <mxCell id="jD1yjTi1I9CzoJMfPODW-110" value="" style="swimlane;startSize=0;direction=south;rotation=-180;" vertex="1" parent="1">
          <mxGeometry x="-730" y="1190" width="130" height="240" as="geometry" />
        </mxCell>
        <mxCell id="jD1yjTi1I9CzoJMfPODW-111" value="" style="endArrow=none;html=1;rounded=0;" edge="1" parent="1">
          <mxGeometry width="50" height="50" relative="1" as="geometry">
            <mxPoint x="-1490" y="1300" as="sourcePoint" />
            <mxPoint x="-1490" y="1230" as="targetPoint" />
          </mxGeometry>
        </mxCell>
        <mxCell id="jD1yjTi1I9CzoJMfPODW-112" value="" style="endArrow=none;html=1;rounded=0;" edge="1" parent="1">
          <mxGeometry width="50" height="50" relative="1" as="geometry">
            <mxPoint x="-1550" y="1220" as="sourcePoint" />
            <mxPoint x="-1500" y="1220" as="targetPoint" />
          </mxGeometry>
        </mxCell>
        <mxCell id="jD1yjTi1I9CzoJMfPODW-113" value="" style="endArrow=none;html=1;rounded=0;" edge="1" parent="1">
          <mxGeometry width="50" height="50" relative="1" as="geometry">
            <mxPoint x="-1560" y="1300" as="sourcePoint" />
            <mxPoint x="-1560" y="1230" as="targetPoint" />
            <Array as="points">
              <mxPoint x="-1560" y="1280" />
            </Array>
          </mxGeometry>
        </mxCell>
        <mxCell id="jD1yjTi1I9CzoJMfPODW-114" value="" style="endArrow=none;html=1;rounded=0;" edge="1" parent="1">
          <mxGeometry width="50" height="50" relative="1" as="geometry">
            <mxPoint x="-1490" y="1390" as="sourcePoint" />
            <mxPoint x="-1490" y="1320" as="targetPoint" />
          </mxGeometry>
        </mxCell>
        <mxCell id="jD1yjTi1I9CzoJMfPODW-115" value="" style="endArrow=none;html=1;rounded=0;" edge="1" parent="1">
          <mxGeometry width="50" height="50" relative="1" as="geometry">
            <mxPoint x="-1560" y="1400" as="sourcePoint" />
            <mxPoint x="-1560" y="1320" as="targetPoint" />
          </mxGeometry>
        </mxCell>
        <mxCell id="jD1yjTi1I9CzoJMfPODW-116" value="" style="endArrow=none;html=1;rounded=0;" edge="1" parent="1">
          <mxGeometry width="50" height="50" relative="1" as="geometry">
            <mxPoint x="-1550" y="1310" as="sourcePoint" />
            <mxPoint x="-1500" y="1310" as="targetPoint" />
          </mxGeometry>
        </mxCell>
        <mxCell id="jD1yjTi1I9CzoJMfPODW-117" value="" style="endArrow=none;html=1;rounded=0;" edge="1" parent="1">
          <mxGeometry width="50" height="50" relative="1" as="geometry">
            <mxPoint x="-1550" y="1410" as="sourcePoint" />
            <mxPoint x="-1500" y="1410" as="targetPoint" />
          </mxGeometry>
        </mxCell>
        <mxCell id="jD1yjTi1I9CzoJMfPODW-118" value="" style="swimlane;startSize=0;direction=south;rotation=-180;" vertex="1" parent="1">
          <mxGeometry x="-1590" y="1190" width="130" height="240" as="geometry" />
        </mxCell>
        <mxCell id="jD1yjTi1I9CzoJMfPODW-120" value="" style="endArrow=classic;startArrow=classic;html=1;rounded=0;exitX=1;exitY=0.25;exitDx=0;exitDy=0;entryX=0;entryY=1;entryDx=0;entryDy=0;" edge="1" parent="1" source="jD1yjTi1I9CzoJMfPODW-35" target="jD1yjTi1I9CzoJMfPODW-2">
          <mxGeometry width="50" height="50" relative="1" as="geometry">
            <mxPoint x="-190" y="840" as="sourcePoint" />
            <mxPoint x="320" y="815" as="targetPoint" />
            <Array as="points">
              <mxPoint x="330" y="820" />
            </Array>
          </mxGeometry>
        </mxCell>
        <mxCell id="jD1yjTi1I9CzoJMfPODW-121" value="2X1 MUX" style="shape=trapezoid;perimeter=trapezoidPerimeter;whiteSpace=wrap;html=1;fixedSize=1;rotation=90;" vertex="1" parent="1">
          <mxGeometry x="-20" y="1250" width="120" height="60" as="geometry" />
        </mxCell>
        <mxCell id="jD1yjTi1I9CzoJMfPODW-122" value="" style="endArrow=classic;html=1;rounded=0;entryX=0.25;entryY=1;entryDx=0;entryDy=0;exitX=0.355;exitY=1.007;exitDx=0;exitDy=0;exitPerimeter=0;" edge="1" parent="1" source="jD1yjTi1I9CzoJMfPODW-35" target="jD1yjTi1I9CzoJMfPODW-121">
          <mxGeometry width="50" height="50" relative="1" as="geometry">
            <mxPoint x="-190" y="1070" as="sourcePoint" />
            <mxPoint x="-180" y="1270" as="targetPoint" />
            <Array as="points">
              <mxPoint x="-220" y="1240" />
            </Array>
          </mxGeometry>
        </mxCell>
        <mxCell id="jD1yjTi1I9CzoJMfPODW-123" value="" style="endArrow=classic;html=1;rounded=0;" edge="1" parent="1" target="jD1yjTi1I9CzoJMfPODW-60">
          <mxGeometry width="50" height="50" relative="1" as="geometry">
            <mxPoint x="20" y="1270" as="sourcePoint" />
            <mxPoint x="-140" y="1020" as="targetPoint" />
          </mxGeometry>
        </mxCell>
        <mxCell id="jD1yjTi1I9CzoJMfPODW-124" value="" style="endArrow=none;html=1;rounded=0;entryX=0.454;entryY=0.991;entryDx=0;entryDy=0;entryPerimeter=0;" edge="1" parent="1" target="jD1yjTi1I9CzoJMfPODW-32">
          <mxGeometry width="50" height="50" relative="1" as="geometry">
            <mxPoint x="220" y="2490" as="sourcePoint" />
            <mxPoint x="-770" y="720" as="targetPoint" />
            <Array as="points">
              <mxPoint x="-2210" y="2490" />
              <mxPoint x="-2170" y="270" />
            </Array>
          </mxGeometry>
        </mxCell>
        <mxCell id="jD1yjTi1I9CzoJMfPODW-126" value="" style="endArrow=classic;html=1;rounded=0;exitX=0.5;exitY=0;exitDx=0;exitDy=0;entryX=0.5;entryY=1;entryDx=0;entryDy=0;" edge="1" parent="1" source="jD1yjTi1I9CzoJMfPODW-39" target="jD1yjTi1I9CzoJMfPODW-121">
          <mxGeometry width="50" height="50" relative="1" as="geometry">
            <mxPoint x="-700" y="1690" as="sourcePoint" />
            <mxPoint x="-110" y="1290" as="targetPoint" />
            <Array as="points">
              <mxPoint x="-80" y="1500" />
              <mxPoint x="-80" y="1290" />
            </Array>
          </mxGeometry>
        </mxCell>
        <mxCell id="jD1yjTi1I9CzoJMfPODW-128" value="" style="endArrow=classic;html=1;rounded=0;entryX=0.333;entryY=0.033;entryDx=0;entryDy=0;entryPerimeter=0;" edge="1" parent="1" target="jD1yjTi1I9CzoJMfPODW-35">
          <mxGeometry width="50" height="50" relative="1" as="geometry">
            <mxPoint x="-240" y="300" as="sourcePoint" />
            <mxPoint x="10" y="970" as="targetPoint" />
          </mxGeometry>
        </mxCell>
        <mxCell id="jD1yjTi1I9CzoJMfPODW-142" style="edgeStyle=orthogonalEdgeStyle;rounded=0;orthogonalLoop=1;jettySize=auto;html=1;exitX=0.25;exitY=1;exitDx=0;exitDy=0;entryX=1;entryY=0.25;entryDx=0;entryDy=0;" edge="1" parent="1" source="jD1yjTi1I9CzoJMfPODW-129" target="jD1yjTi1I9CzoJMfPODW-39">
          <mxGeometry relative="1" as="geometry" />
        </mxCell>
        <mxCell id="jD1yjTi1I9CzoJMfPODW-143" style="edgeStyle=orthogonalEdgeStyle;rounded=0;orthogonalLoop=1;jettySize=auto;html=1;exitX=0.5;exitY=1;exitDx=0;exitDy=0;entryX=1;entryY=0.5;entryDx=0;entryDy=0;" edge="1" parent="1" source="jD1yjTi1I9CzoJMfPODW-129" target="jD1yjTi1I9CzoJMfPODW-39">
          <mxGeometry relative="1" as="geometry" />
        </mxCell>
        <mxCell id="jD1yjTi1I9CzoJMfPODW-144" style="edgeStyle=orthogonalEdgeStyle;rounded=0;orthogonalLoop=1;jettySize=auto;html=1;exitX=0.75;exitY=1;exitDx=0;exitDy=0;entryX=1;entryY=0.75;entryDx=0;entryDy=0;" edge="1" parent="1" source="jD1yjTi1I9CzoJMfPODW-129" target="jD1yjTi1I9CzoJMfPODW-39">
          <mxGeometry relative="1" as="geometry" />
        </mxCell>
        <mxCell id="jD1yjTi1I9CzoJMfPODW-129" value="&lt;font style=&quot;font-size: 19px;&quot;&gt;Subset of CU&lt;/font&gt;" style="rounded=0;whiteSpace=wrap;html=1;rotation=90;" vertex="1" parent="1">
          <mxGeometry x="70" y="1810" width="280" height="60" as="geometry" />
        </mxCell>
        <mxCell id="jD1yjTi1I9CzoJMfPODW-160" style="edgeStyle=orthogonalEdgeStyle;rounded=0;orthogonalLoop=1;jettySize=auto;html=1;exitX=0.25;exitY=1;exitDx=0;exitDy=0;entryX=1;entryY=0.25;entryDx=0;entryDy=0;" edge="1" parent="1" source="jD1yjTi1I9CzoJMfPODW-130" target="jD1yjTi1I9CzoJMfPODW-40">
          <mxGeometry relative="1" as="geometry" />
        </mxCell>
        <mxCell id="jD1yjTi1I9CzoJMfPODW-130" value="&lt;font style=&quot;font-size: 19px;&quot;&gt;Subset of CU&lt;/font&gt;" style="rounded=0;whiteSpace=wrap;html=1;rotation=90;" vertex="1" parent="1">
          <mxGeometry x="-1540" y="1800" width="280" height="60" as="geometry" />
        </mxCell>
        <mxCell id="jD1yjTi1I9CzoJMfPODW-147" style="edgeStyle=orthogonalEdgeStyle;rounded=0;orthogonalLoop=1;jettySize=auto;html=1;exitX=0.25;exitY=1;exitDx=0;exitDy=0;entryX=1;entryY=0.25;entryDx=0;entryDy=0;" edge="1" parent="1" source="jD1yjTi1I9CzoJMfPODW-132" target="jD1yjTi1I9CzoJMfPODW-38">
          <mxGeometry relative="1" as="geometry" />
        </mxCell>
        <mxCell id="jD1yjTi1I9CzoJMfPODW-148" style="edgeStyle=orthogonalEdgeStyle;rounded=0;orthogonalLoop=1;jettySize=auto;html=1;exitX=0.75;exitY=1;exitDx=0;exitDy=0;entryX=1;entryY=0.75;entryDx=0;entryDy=0;" edge="1" parent="1" source="jD1yjTi1I9CzoJMfPODW-132" target="jD1yjTi1I9CzoJMfPODW-38">
          <mxGeometry relative="1" as="geometry" />
        </mxCell>
        <mxCell id="jD1yjTi1I9CzoJMfPODW-132" value="&lt;font style=&quot;font-size: 19px;&quot;&gt;Subset of CU&lt;/font&gt;" style="rounded=0;whiteSpace=wrap;html=1;rotation=90;" vertex="1" parent="1">
          <mxGeometry x="-570" y="1810" width="280" height="60" as="geometry" />
        </mxCell>
        <mxCell id="jD1yjTi1I9CzoJMfPODW-156" style="edgeStyle=orthogonalEdgeStyle;rounded=0;orthogonalLoop=1;jettySize=auto;html=1;exitX=0.75;exitY=1;exitDx=0;exitDy=0;entryX=1;entryY=0.75;entryDx=0;entryDy=0;" edge="1" parent="1" source="jD1yjTi1I9CzoJMfPODW-133" target="jD1yjTi1I9CzoJMfPODW-37">
          <mxGeometry relative="1" as="geometry" />
        </mxCell>
        <mxCell id="jD1yjTi1I9CzoJMfPODW-133" value="&lt;font style=&quot;font-size: 19px;&quot;&gt;Subset of CU&lt;/font&gt;" style="rounded=0;whiteSpace=wrap;html=1;rotation=90;" vertex="1" parent="1">
          <mxGeometry x="-1070" y="1820" width="280" height="60" as="geometry" />
        </mxCell>
        <mxCell id="jD1yjTi1I9CzoJMfPODW-141" value="" style="endArrow=classic;html=1;rounded=0;entryX=1;entryY=0.5;entryDx=0;entryDy=0;" edge="1" parent="1" target="jD1yjTi1I9CzoJMfPODW-129">
          <mxGeometry width="50" height="50" relative="1" as="geometry">
            <mxPoint x="220" y="2490" as="sourcePoint" />
            <mxPoint x="10" y="2080" as="targetPoint" />
          </mxGeometry>
        </mxCell>
        <mxCell id="jD1yjTi1I9CzoJMfPODW-145" value="" style="endArrow=classic;html=1;rounded=0;entryX=0;entryY=0.25;entryDx=0;entryDy=0;" edge="1" parent="1" target="jD1yjTi1I9CzoJMfPODW-129">
          <mxGeometry width="50" height="50" relative="1" as="geometry">
            <mxPoint x="-80" y="1600" as="sourcePoint" />
            <mxPoint x="360" y="1580" as="targetPoint" />
            <Array as="points">
              <mxPoint x="230" y="1590" />
            </Array>
          </mxGeometry>
        </mxCell>
        <mxCell id="jD1yjTi1I9CzoJMfPODW-146" value="" style="endArrow=classic;startArrow=classic;html=1;rounded=0;exitX=1;exitY=0.25;exitDx=0;exitDy=0;entryX=0.004;entryY=0.881;entryDx=0;entryDy=0;entryPerimeter=0;" edge="1" parent="1" source="jD1yjTi1I9CzoJMfPODW-36" target="jD1yjTi1I9CzoJMfPODW-2">
          <mxGeometry width="50" height="50" relative="1" as="geometry">
            <mxPoint x="-480" y="1020" as="sourcePoint" />
            <mxPoint x="-430" y="970" as="targetPoint" />
            <Array as="points">
              <mxPoint x="-430" y="810" />
              <mxPoint x="-440" y="600" />
            </Array>
          </mxGeometry>
        </mxCell>
        <mxCell id="jD1yjTi1I9CzoJMfPODW-152" style="edgeStyle=orthogonalEdgeStyle;rounded=0;orthogonalLoop=1;jettySize=auto;html=1;exitX=0.5;exitY=0;exitDx=0;exitDy=0;entryX=0.5;entryY=1;entryDx=0;entryDy=0;" edge="1" parent="1" source="jD1yjTi1I9CzoJMfPODW-151" target="jD1yjTi1I9CzoJMfPODW-110">
          <mxGeometry relative="1" as="geometry" />
        </mxCell>
        <mxCell id="jD1yjTi1I9CzoJMfPODW-151" value="&lt;font style=&quot;font-size: 14px;&quot;&gt;2x1 MUX&lt;/font&gt;" style="shape=trapezoid;perimeter=trapezoidPerimeter;whiteSpace=wrap;html=1;fixedSize=1;rotation=-90;" vertex="1" parent="1">
          <mxGeometry x="-520" y="1280" width="120" height="60" as="geometry" />
        </mxCell>
        <mxCell id="jD1yjTi1I9CzoJMfPODW-153" value="" style="endArrow=classic;html=1;rounded=0;entryX=0;entryY=0.5;entryDx=0;entryDy=0;" edge="1" parent="1" target="jD1yjTi1I9CzoJMfPODW-132">
          <mxGeometry width="50" height="50" relative="1" as="geometry">
            <mxPoint x="-630" y="1630" as="sourcePoint" />
            <mxPoint x="-320" y="1600" as="targetPoint" />
            <Array as="points">
              <mxPoint x="-430" y="1630" />
            </Array>
          </mxGeometry>
        </mxCell>
        <mxCell id="jD1yjTi1I9CzoJMfPODW-154" value="" style="endArrow=classic;html=1;rounded=0;entryX=0.5;entryY=0;entryDx=0;entryDy=0;" edge="1" parent="1" target="jD1yjTi1I9CzoJMfPODW-41">
          <mxGeometry width="50" height="50" relative="1" as="geometry">
            <mxPoint x="-1140" y="290" as="sourcePoint" />
            <mxPoint x="-790" y="990" as="targetPoint" />
          </mxGeometry>
        </mxCell>
        <mxCell id="jD1yjTi1I9CzoJMfPODW-155" value="" style="endArrow=classic;startArrow=classic;html=1;rounded=0;exitX=0.75;exitY=0;exitDx=0;exitDy=0;entryX=0;entryY=0.825;entryDx=0;entryDy=0;entryPerimeter=0;" edge="1" parent="1" source="jD1yjTi1I9CzoJMfPODW-41" target="jD1yjTi1I9CzoJMfPODW-2">
          <mxGeometry width="50" height="50" relative="1" as="geometry">
            <mxPoint x="-500" y="770" as="sourcePoint" />
            <mxPoint x="-450" y="720" as="targetPoint" />
            <Array as="points">
              <mxPoint x="-1055" y="550" />
            </Array>
          </mxGeometry>
        </mxCell>
        <mxCell id="jD1yjTi1I9CzoJMfPODW-157" style="edgeStyle=orthogonalEdgeStyle;rounded=0;orthogonalLoop=1;jettySize=auto;html=1;exitX=0.25;exitY=1;exitDx=0;exitDy=0;entryX=0.997;entryY=0.315;entryDx=0;entryDy=0;entryPerimeter=0;" edge="1" parent="1" source="jD1yjTi1I9CzoJMfPODW-133" target="jD1yjTi1I9CzoJMfPODW-37">
          <mxGeometry relative="1" as="geometry" />
        </mxCell>
        <mxCell id="jD1yjTi1I9CzoJMfPODW-158" value="" style="endArrow=classic;html=1;rounded=0;entryX=1;entryY=0.5;entryDx=0;entryDy=0;" edge="1" parent="1" target="jD1yjTi1I9CzoJMfPODW-133">
          <mxGeometry width="50" height="50" relative="1" as="geometry">
            <mxPoint x="-920" y="2500" as="sourcePoint" />
            <mxPoint x="-520" y="2050" as="targetPoint" />
          </mxGeometry>
        </mxCell>
        <mxCell id="jD1yjTi1I9CzoJMfPODW-159" style="edgeStyle=orthogonalEdgeStyle;rounded=0;orthogonalLoop=1;jettySize=auto;html=1;exitX=0.75;exitY=1;exitDx=0;exitDy=0;entryX=0.997;entryY=0.807;entryDx=0;entryDy=0;entryPerimeter=0;" edge="1" parent="1" source="jD1yjTi1I9CzoJMfPODW-130" target="jD1yjTi1I9CzoJMfPODW-40">
          <mxGeometry relative="1" as="geometry" />
        </mxCell>
        <mxCell id="jD1yjTi1I9CzoJMfPODW-161" value="" style="endArrow=classic;startArrow=classic;html=1;rounded=0;exitX=0.5;exitY=0;exitDx=0;exitDy=0;entryX=0.25;entryY=0;entryDx=0;entryDy=0;" edge="1" parent="1" source="jD1yjTi1I9CzoJMfPODW-49" target="jD1yjTi1I9CzoJMfPODW-2">
          <mxGeometry width="50" height="50" relative="1" as="geometry">
            <mxPoint x="-850" y="760" as="sourcePoint" />
            <mxPoint x="-220" y="22.5" as="targetPoint" />
            <Array as="points">
              <mxPoint x="-1590" y="40" />
              <mxPoint x="423" y="20" />
            </Array>
          </mxGeometry>
        </mxCell>
        <mxCell id="jD1yjTi1I9CzoJMfPODW-167" style="edgeStyle=orthogonalEdgeStyle;rounded=0;orthogonalLoop=1;jettySize=auto;html=1;exitX=0.5;exitY=0;exitDx=0;exitDy=0;entryX=0.5;entryY=1;entryDx=0;entryDy=0;" edge="1" parent="1" source="jD1yjTi1I9CzoJMfPODW-164" target="jD1yjTi1I9CzoJMfPODW-102">
          <mxGeometry relative="1" as="geometry" />
        </mxCell>
        <mxCell id="jD1yjTi1I9CzoJMfPODW-164" value="2x1 mix" style="shape=trapezoid;perimeter=trapezoidPerimeter;whiteSpace=wrap;html=1;fixedSize=1;rotation=-90;" vertex="1" parent="1">
          <mxGeometry x="-980" y="1280" width="120" height="60" as="geometry" />
        </mxCell>
        <mxCell id="jD1yjTi1I9CzoJMfPODW-168" value="" style="endArrow=classic;html=1;rounded=0;entryX=0;entryY=0.5;entryDx=0;entryDy=0;" edge="1" parent="1" target="jD1yjTi1I9CzoJMfPODW-133">
          <mxGeometry width="50" height="50" relative="1" as="geometry">
            <mxPoint x="-1090" y="1610" as="sourcePoint" />
            <mxPoint x="-690" y="1490" as="targetPoint" />
            <Array as="points">
              <mxPoint x="-920" y="1610" />
            </Array>
          </mxGeometry>
        </mxCell>
        <mxCell id="jD1yjTi1I9CzoJMfPODW-172" style="edgeStyle=orthogonalEdgeStyle;rounded=0;orthogonalLoop=1;jettySize=auto;html=1;exitX=0.5;exitY=0;exitDx=0;exitDy=0;entryX=0.5;entryY=1;entryDx=0;entryDy=0;" edge="1" parent="1" source="jD1yjTi1I9CzoJMfPODW-171" target="jD1yjTi1I9CzoJMfPODW-118">
          <mxGeometry relative="1" as="geometry" />
        </mxCell>
        <mxCell id="jD1yjTi1I9CzoJMfPODW-171" value="2x1 MUX&lt;div&gt;&lt;br&gt;&lt;/div&gt;" style="shape=trapezoid;perimeter=trapezoidPerimeter;whiteSpace=wrap;html=1;fixedSize=1;rotation=-90;" vertex="1" parent="1">
          <mxGeometry x="-1390" y="1280" width="120" height="60" as="geometry" />
        </mxCell>
        <mxCell id="jD1yjTi1I9CzoJMfPODW-173" value="" style="endArrow=classic;html=1;rounded=0;entryX=0;entryY=0.5;entryDx=0;entryDy=0;" edge="1" parent="1" target="jD1yjTi1I9CzoJMfPODW-130">
          <mxGeometry width="50" height="50" relative="1" as="geometry">
            <mxPoint x="-1570" y="1600" as="sourcePoint" />
            <mxPoint x="-710" y="1660" as="targetPoint" />
            <Array as="points">
              <mxPoint x="-1400" y="1600" />
            </Array>
          </mxGeometry>
        </mxCell>
        <mxCell id="jD1yjTi1I9CzoJMfPODW-175" value="" style="endArrow=classic;html=1;rounded=0;entryX=1;entryY=0.25;entryDx=0;entryDy=0;" edge="1" parent="1" target="jD1yjTi1I9CzoJMfPODW-133">
          <mxGeometry width="50" height="50" relative="1" as="geometry">
            <mxPoint x="-810" y="2630" as="sourcePoint" />
            <mxPoint x="-910" y="2050" as="targetPoint" />
            <Array as="points">
              <mxPoint x="-810" y="2150" />
              <mxPoint x="-900" y="2170" />
            </Array>
          </mxGeometry>
        </mxCell>
        <mxCell id="jD1yjTi1I9CzoJMfPODW-176" value="" style="endArrow=classic;html=1;rounded=0;entryX=1;entryY=0.5;entryDx=0;entryDy=0;" edge="1" parent="1" target="jD1yjTi1I9CzoJMfPODW-132">
          <mxGeometry width="50" height="50" relative="1" as="geometry">
            <mxPoint x="-430" y="2630" as="sourcePoint" />
            <mxPoint x="-620" y="2140" as="targetPoint" />
          </mxGeometry>
        </mxCell>
        <mxCell id="jD1yjTi1I9CzoJMfPODW-177" value="" style="endArrow=classic;html=1;rounded=0;entryX=1;entryY=0;entryDx=0;entryDy=0;" edge="1" parent="1" target="jD1yjTi1I9CzoJMfPODW-129">
          <mxGeometry width="50" height="50" relative="1" as="geometry">
            <mxPoint x="280" y="2650" as="sourcePoint" />
            <mxPoint x="380" y="1950" as="targetPoint" />
            <Array as="points">
              <mxPoint x="260" y="2240" />
            </Array>
          </mxGeometry>
        </mxCell>
        <mxCell id="jD1yjTi1I9CzoJMfPODW-178" value="&lt;font style=&quot;font-size: 20px;&quot;&gt;Main Clock&lt;/font&gt;" style="text;html=1;align=center;verticalAlign=middle;whiteSpace=wrap;rounded=0;" vertex="1" parent="1">
          <mxGeometry x="-2470" y="740" width="230" height="320" as="geometry" />
        </mxCell>
      </root>
    </mxGraphModel>
  </diagram>
</mxfile>
